<?xml version="1.0" encoding="utf-8"?>
<!-- Generator: Adobe Illustrator 25.0.1, SVG Export Plug-In . SVG Version: 6.00 Build 0)  -->
<svg version="1.0" id="Layer_1" xmlns="http://www.w3.org/2000/svg" xmlns:xlink="http://www.w3.org/1999/xlink" x="0px" y="0px"
	 viewBox="0 0 436 296" style="enable-background:new 0 0 436 296;" xml:space="preserve">
<style type="text/css">
	.st0{fill:#F7BB17;}
	.st1{fill:#E94536;}
	.st2{fill:#547DBF;}
</style>
<g>
	<path class="st0" d="M299.1,255.6c-15.1,0-27.3-12.2-27.3-27.3V148c0-29.2-23.8-53.1-53.1-53.1c-15.1,0-27.3-12.2-27.3-27.3
		s12.2-27.3,27.3-27.3c59.3,0,107.6,48.3,107.6,107.6v80.3C326.4,243.4,314.2,255.6,299.1,255.6z"/>
	<path class="st1" d="M217.2,255.6c-59.3,0-107.6-48.3-107.6-107.6S157.9,40.4,217.2,40.4c15.1,0,27.3,12.2,27.3,27.3
		s-12.2,27.3-27.3,27.3c-29.2,0-53.1,23.8-53.1,53.1S188,201,217.2,201c15.1,0,27.3,12.2,27.3,27.3S232.3,255.6,217.2,255.6z"/>
	<circle class="st2" cx="299.1" cy="228.3" r="27.3"/>
</g>
</svg>
